<?xml version="1.0"?>
<svg xmlns="http://www.w3.org/2000/svg" viewBox="0 0 64 64" width="512px" height="512px" class=""><g><title class="active-path" style="">company-Building-bank-Business-office</title><g id="Expand"><rect x="60" y="60" width="2" height="2" data-original="#000000" class="active-path" fill="#5BBA58"/><path d="M26,44h4a1,1,0,0,0,1-1V39a1,1,0,0,0-1-1H26a1,1,0,0,0-1,1v4A1,1,0,0,0,26,44Zm1-4h2v2H27Z" data-original="#000000" class="active-path" fill="#5BBA58"/><path d="M34,44h4a1,1,0,0,0,1-1V39a1,1,0,0,0-1-1H34a1,1,0,0,0-1,1v4A1,1,0,0,0,34,44Zm1-4h2v2H35Z" data-original="#000000" class="active-path" fill="#5BBA58"/><path d="M26,36h4a1,1,0,0,0,1-1V31a1,1,0,0,0-1-1H26a1,1,0,0,0-1,1v4A1,1,0,0,0,26,36Zm1-4h2v2H27Z" data-original="#000000" class="active-path" fill="#5BBA58"/><path d="M34,36h4a1,1,0,0,0,1-1V31a1,1,0,0,0-1-1H34a1,1,0,0,0-1,1v4A1,1,0,0,0,34,36Zm1-4h2v2H35Z" data-original="#000000" class="active-path" fill="#5BBA58"/><path d="M26,28h4a1,1,0,0,0,1-1V23H29v3H27V23H25v4A1,1,0,0,0,26,28Z" data-original="#000000" class="active-path" fill="#5BBA58"/><path d="M34,28h4a1,1,0,0,0,1-1V23H37v3H35V23H33v4A1,1,0,0,0,34,28Z" data-original="#000000" class="active-path" fill="#5BBA58"/><rect x="4" y="24" width="2" height="21" data-original="#000000" class="active-path" fill="#5BBA58"/><rect x="4" y="47" width="2" height="2" data-original="#000000" class="active-path" fill="#5BBA58"/><rect x="58" y="31" width="2" height="21" data-original="#000000" class="active-path" fill="#5BBA58"/><path d="M13,30h4a1,1,0,0,0,1-1V25a1,1,0,0,0-1-1H13a1,1,0,0,0-1,1v4A1,1,0,0,0,13,30Zm1-4h2v2H14Z" data-original="#000000" class="active-path" fill="#5BBA58"/><path d="M13,38h4a1,1,0,0,0,1-1V33a1,1,0,0,0-1-1H13a1,1,0,0,0-1,1v4A1,1,0,0,0,13,38Zm1-4h2v2H14Z" data-original="#000000" class="active-path" fill="#5BBA58"/><path d="M13,46h4a1,1,0,0,0,1-1V41a1,1,0,0,0-1-1H13a1,1,0,0,0-1,1v4A1,1,0,0,0,13,46Zm1-4h2v2H14Z" data-original="#000000" class="active-path" fill="#5BBA58"/><path d="M13,54h4a1,1,0,0,0,1-1V49a1,1,0,0,0-1-1H13a1,1,0,0,0-1,1v4A1,1,0,0,0,13,54Zm1-4h2v2H14Z" data-original="#000000" class="active-path" fill="#5BBA58"/><path d="M56,21a1,1,0,0,0-1-1H44V16h1a1,1,0,0,0,1-1V9a1,1,0,0,0-1.077-1l-3.647.28a9.989,9.989,0,0,0-19.01,1.463L18.923,10A1,1,0,0,0,18,11v4a1,1,0,0,0,1,1h1v4H9a1,1,0,0,0-1,1V60H2v2H58V60H56ZM31,57v3H27V52h4v3H29v2Zm2,0h2V55H33V52h4v8H33Zm5-7H26a1,1,0,0,0-1,1v9H22V48H42V60H39V51A1,1,0,0,0,38,50Zm6,8H54v2H44ZM54,22V56H44V22ZM44,10.08V14H41.8a9.742,9.742,0,0,0,.038-3.754ZM32,4a8,8,0,1,1-8,8A8.009,8.009,0,0,1,32,4ZM20,11.926l2.012-.155c0,.077-.012.152-.012.229a9.983,9.983,0,0,0,.2,2H20ZM22.841,16a9.991,9.991,0,0,0,18.318,0H42V46H22V16ZM20,22V56H10V22ZM10,58H20v2H10Z" data-original="#000000" class="active-path" fill="#5BBA58"/><path d="M47,30h4a1,1,0,0,0,1-1V25a1,1,0,0,0-1-1H47a1,1,0,0,0-1,1v4A1,1,0,0,0,47,30Zm1-4h2v2H48Z" data-original="#000000" class="active-path" fill="#5BBA58"/><path d="M47,38h4a1,1,0,0,0,1-1V33a1,1,0,0,0-1-1H47a1,1,0,0,0-1,1v4A1,1,0,0,0,47,38Zm1-4h2v2H48Z" data-original="#000000" class="active-path" fill="#5BBA58"/><path d="M47,46h4a1,1,0,0,0,1-1V41a1,1,0,0,0-1-1H47a1,1,0,0,0-1,1v4A1,1,0,0,0,47,46Zm1-4h2v2H48Z" data-original="#000000" class="active-path" fill="#5BBA58"/><path d="M47,54h4a1,1,0,0,0,1-1V49a1,1,0,0,0-1-1H47a1,1,0,0,0-1,1v4A1,1,0,0,0,47,54Zm1-4h2v2H48Z" data-original="#000000" class="active-path" fill="#5BBA58"/><path d="M31,16.855V18h2V16.855a2.844,2.844,0,0,0,.422-5.262l-1.949-.975A.854.854,0,0,1,31.854,9h.292A.856.856,0,0,1,33,9.854V10h2V9.854a2.849,2.849,0,0,0-2-2.709V6H31V7.145a2.844,2.844,0,0,0-.422,5.262l1.949.975A.854.854,0,0,1,32.146,15h-.292A.856.856,0,0,1,31,14.146V14H29v.146A2.849,2.849,0,0,0,31,16.855Z" data-original="#000000" class="active-path" fill="#5BBA58"/></g></g> </svg>
